<?xml version="1.0" standalone="no"?><svg xmlns="http://www.w3.org/2000/svg" viewBox="0 0 1440 320"><path fill="#0099ff" fill-opacity="1" d="M0,0L8.3,21.3C16.6,43,33,85,50,133.3C66.2,181,83,235,99,213.3C115.9,192,132,96,149,85.3C165.5,75,182,149,199,154.7C215.2,160,232,96,248,69.3C264.8,43,281,53,298,96C314.5,139,331,213,348,250.7C364.1,288,381,288,397,282.7C413.8,277,430,267,447,256C463.4,245,480,235,497,197.3C513.1,160,530,96,546,112C562.8,128,579,224,596,272C612.4,320,629,320,646,309.3C662.1,299,679,277,695,229.3C711.7,181,728,107,745,69.3C761.4,32,778,32,794,64C811,96,828,160,844,165.3C860.7,171,877,117,894,90.7C910.3,64,927,64,943,85.3C960,107,977,149,993,149.3C1009.7,149,1026,107,1043,106.7C1059.3,107,1076,149,1092,160C1109,171,1126,149,1142,165.3C1158.6,181,1175,235,1192,234.7C1208.3,235,1225,181,1241,144C1257.9,107,1274,85,1291,80C1307.6,75,1324,85,1341,85.3C1357.2,85,1374,75,1390,90.7C1406.9,107,1423,149,1432,170.7L1440,192L1440,320L1431.7,320C1423.4,320,1407,320,1390,320C1373.8,320,1357,320,1341,320C1324.1,320,1308,320,1291,320C1274.5,320,1258,320,1241,320C1224.8,320,1208,320,1192,320C1175.2,320,1159,320,1142,320C1125.5,320,1109,320,1092,320C1075.9,320,1059,320,1043,320C1026.2,320,1010,320,993,320C976.6,320,960,320,943,320C926.9,320,910,320,894,320C877.2,320,861,320,844,320C827.6,320,811,320,794,320C777.9,320,761,320,745,320C728.3,320,712,320,695,320C678.6,320,662,320,646,320C629,320,612,320,596,320C579.3,320,563,320,546,320C529.7,320,513,320,497,320C480,320,463,320,447,320C430.3,320,414,320,397,320C380.7,320,364,320,348,320C331,320,314,320,298,320C281.4,320,265,320,248,320C231.7,320,215,320,199,320C182.1,320,166,320,149,320C132.4,320,116,320,99,320C82.8,320,66,320,50,320C33.1,320,17,320,8,320L0,320Z"></path></svg>